<?xml version="1.0" ?><svg height="500" id="svg2" version="1.1" width="500" xmlns="http://www.w3.org/2000/svg" xmlns:cc="http://creativecommons.org/ns#" xmlns:dc="http://purl.org/dc/elements/1.1/" xmlns:inkscape="http://www.inkscape.org/namespaces/inkscape" xmlns:rdf="http://www.w3.org/1999/02/22-rdf-syntax-ns#" xmlns:sodipodi="http://sodipodi.sourceforge.net/DTD/sodipodi-0.dtd" xmlns:svg="http://www.w3.org/2000/svg"><defs id="defs4"/><g id="layer1" transform="translate(0,-552.36218)"><rect height="500" id="rect2990-1" rx="250" ry="250" style="fill:#49c8f5;fill-opacity:1;stroke:none" width="500" x="0" y="552.36218"/><path d="m 174.93086,642.36218 c -16.45546,0 -29.84051,6.76581 -35.47368,23.55263 -7.38939,22.05548 -5.40858,47.8787 -5.31579,70.84211 0.0265,4.36074 0.0393,8.7576 0.0526,13.13158 0.0531,15.04386 0.38114,30.17271 0.44737,45.28947 0.0398,16.26989 0.0526,32.53283 0.0526,48.78947 0,91.09817 82.779,116.92106 98.65789,116.92106 15.8789,0 78.10229,1.47368 89.34211,1.47368 11.23981,0 43.47368,-2.98591 43.47368,-35.60526 0,-32.61932 -22.84798,-44.31579 -38.28947,-44.31579 l -61.78947,0 c -43.94529,0 -50.94737,-19.44756 -50.94737,-37.47369 0,-8.55577 0.54876,-22.67012 1.07895,-39.94737 l 103.18421,0 c 15.44149,0 44.92105,-6.30066 44.92105,-34.55263 0,-28.23208 -13.6435,-46.76315 -31.86842,-46.76315 l -114.97369,0 c -0.1193,-40.74433 -2.756,-81.34211 -42.55263,-81.34211 z" id="rect2989" style="fill:#ffffff;fill-opacity:1;stroke:none"/><g id="layer1-9" transform="translate(-549.00515,80.294372)"/><g id="layer1-6" transform="translate(-575.71429,39.999999)"/><g id="layer1-60" transform="matrix(0.99791782,0,0,0.99791782,471.52945,-9.2148018)"/></g></svg>